<svg width="240" height="64" viewBox="0 0 240 64" fill="none" xmlns="http://www.w3.org/2000/svg">
<path d="M95.2799 24.8077C93.3944 24.8077 92.0264 27.0652 92.0264 30.1762C92.0264 33.3051 93.38 35.4906 95.3192 35.4906C97.2344 35.4906 98.5727 33.3065 98.5727 30.1762C98.5727 27.0158 97.219 24.8077 95.2799 24.8077Z" fill="#F0770D"/>
<path d="M13.8416 48.4162C5.8213 48.4162 0 43.3638 0 36.4039C0 29.5154 5.875 24.5157 13.9692 24.5157C16.5871 24.4867 19.1711 25.0982 21.4875 26.2948V24.6488C21.4875 20.8361 19.0036 18.6506 14.6712 18.6506C11.4361 18.6903 8.27499 19.606 5.53694 21.2965L4.45612 21.9286L1.25297 16.2319L2.22639 15.6304C6.08828 13.2389 10.5493 11.9416 15.1162 11.8821C24.0423 11.8821 28.9588 16.5258 28.9588 24.9564V47.6003H22.413L22.0735 45.9702C19.8993 47.572 17.0764 48.4158 13.8416 48.4158V48.4162ZM14.6089 30.8426C10.4448 30.8426 7.53699 33.1024 7.53699 36.3404C7.53699 39.6137 10.4716 41.8993 14.6726 41.8993C18.7993 41.8993 21.6802 39.6137 21.6802 36.3404C21.6802 33.0013 18.9044 30.8426 14.6084 30.8426" fill="#163252"/>
<path d="M50.6218 48.4153C40.3698 48.4153 33.2092 40.9286 33.2092 30.211C33.2092 19.42 40.2101 11.8826 50.2387 11.8826C54.1071 11.8481 57.8441 13.2577 60.6921 15.8255V0.000488281H68.2276V47.6026H60.8834V44.5132C58.113 47.0774 54.4305 48.4782 50.6218 48.4167V48.4153ZM50.8136 18.7738C44.9233 18.7738 40.809 23.5022 40.809 30.2754C40.809 36.9372 44.9496 41.588 50.8788 41.588C56.7701 41.588 60.8844 36.9367 60.8844 30.2754C60.8844 23.3959 56.8378 18.7738 50.8146 18.7738" fill="#163252"/>
<path d="M121.507 0H114.036V47.6021H121.507V0Z" fill="#163252"/>
<path d="M66.8893 58.8178L79.4429 46.5054L84.7253 51.6867L82.4293 53.9399C84.4297 55.6106 86.9716 56.5276 89.599 56.5265C92.5585 56.5229 95.3958 55.3682 97.4884 53.3158C99.5811 51.2633 100.758 48.4806 100.762 45.578V44.5099C97.9501 47.0603 94.2488 48.4572 90.419 48.4134C80.2797 48.4134 73.1973 40.9267 73.1973 30.2091C73.1973 19.4181 80.2533 11.8807 90.3552 11.8807C94.2552 11.8373 98.0219 13.2714 100.87 15.8843V11.8952H108.151V45.5765C108.136 50.398 106.176 55.0176 102.7 58.4271C99.2245 61.8365 94.5145 63.7587 89.5985 63.7742C85.0063 63.7972 80.5744 62.1195 77.1888 59.0764L72.1716 64L66.8893 58.8178ZM90.7403 18.7724C84.9425 18.7724 80.7347 23.5821 80.7347 30.211C80.7347 36.8727 84.9017 41.5254 90.8678 41.5254C96.7582 41.5254 100.872 36.8727 100.872 30.211C100.872 23.4758 96.7059 18.7724 90.7403 18.7724Z" fill="#163252"/>
<path d="M143.962 48.4153C133.245 48.4153 125.466 40.733 125.466 30.148C125.466 19.7351 133.445 11.8826 144.027 11.8826C154.571 11.8826 162.523 19.7365 162.523 30.148C162.523 40.5594 154.544 48.4153 143.963 48.4153H143.962ZM143.963 18.7724C137.648 18.7724 133.065 23.5558 133.065 30.148C133.065 36.8474 137.547 41.5254 143.963 41.5254C150.352 41.5254 154.988 36.7406 154.988 30.148C154.988 23.5554 150.352 18.7724 143.963 18.7724Z" fill="#163252"/>
<path d="M184.086 48.4153C180.255 48.4799 176.55 47.0735 173.761 44.4963V47.6026H166.482V0.000488281H173.954V15.8585C176.803 13.2507 180.571 11.8257 184.468 11.8821C194.495 11.8821 201.498 19.4196 201.498 30.2105C201.498 40.7589 194.176 48.4148 184.086 48.4148V48.4153ZM183.894 18.772C177.833 18.772 173.761 23.394 173.761 30.2736C173.761 36.8295 177.969 41.5861 183.767 41.5861C189.733 41.5861 193.9 36.9349 193.9 30.2736C193.9 23.5013 189.784 18.772 183.894 18.772Z" fill="#163252"/>
<path d="M223.989 48.4153C213.248 48.4153 205.748 40.9554 205.748 30.274C205.748 19.6176 213.018 11.8826 223.033 11.8826C233.181 11.8826 240 19.0476 240 29.712C240 30.3342 239.976 30.8788 239.929 31.3317L239.82 32.4064H213.409C213.951 38.1257 217.98 41.6496 224.054 41.6496C229.023 41.6496 231.876 39.1674 233.393 37.0839L234.108 36.102L239.309 39.8291L238.747 40.7612C237.664 42.5573 233.399 48.4153 223.99 48.4153H223.989ZM232.282 26.3282C231.562 21.4959 228.071 18.5213 223.034 18.5213C218.417 18.5213 214.61 21.7663 213.758 26.3282H232.282Z" fill="#163252"/>
</svg>
