<svg width="371" height="77" viewBox="0 0 371 77" fill="none" xmlns="http://www.w3.org/2000/svg">
<path d="M60.5938 68.1406H50.3203L48.3672 74H42.1367L52.7227 45.5625H58.1523L68.7969 74H62.5664L60.5938 68.1406ZM51.9023 63.3945H59.0117L55.4375 52.75L51.9023 63.3945ZM77.3125 69.293H89.7539V74H71.4531V45.5625H77.3125V69.293ZM102.039 62.5938L98.9922 65.875V74H93.1328V45.5625H98.9922V58.4531L101.57 54.918L108.816 45.5625H116.023L105.926 58.1992L116.316 74H109.344L102.039 62.5938ZM124.754 74H118.895V45.5625H124.754V74ZM153.328 74H147.469L136.062 55.2891V74H130.203V45.5625H136.062L147.488 64.3125V45.5625H153.328V74ZM180.945 70.4062C179.891 71.6693 178.4 72.6523 176.473 73.3555C174.546 74.0456 172.41 74.3906 170.066 74.3906C167.605 74.3906 165.444 73.8568 163.582 72.7891C161.733 71.7083 160.301 70.1458 159.285 68.1016C158.283 66.0573 157.768 63.6549 157.742 60.8945V58.9609C157.742 56.1224 158.217 53.668 159.168 51.5977C160.132 49.5143 161.512 47.9258 163.309 46.832C165.118 45.7253 167.234 45.1719 169.656 45.1719C173.029 45.1719 175.665 45.9792 177.566 47.5938C179.467 49.1953 180.594 51.5326 180.945 54.6055H175.242C174.982 52.9779 174.402 51.7865 173.504 51.0312C172.618 50.276 171.395 49.8984 169.832 49.8984C167.84 49.8984 166.323 50.6471 165.281 52.1445C164.24 53.6419 163.712 55.8685 163.699 58.8242V60.6406C163.699 63.6224 164.266 65.875 165.398 67.3984C166.531 68.9219 168.191 69.6836 170.379 69.6836C172.579 69.6836 174.148 69.2148 175.086 68.2773V63.375H169.754V59.0586H180.945V70.4062Z" fill="#3AABD2"/>
<path d="M60.5938 68.1406L62.4892 67.5025L62.0307 66.1406H60.5938V68.1406ZM50.3203 68.1406V66.1406H48.8788L48.4229 67.5082L50.3203 68.1406ZM48.3672 74V76H49.8087L50.2646 74.6325L48.3672 74ZM42.1367 74L40.2624 73.3023L39.2581 76H42.1367V74ZM52.7227 45.5625V43.5625H51.3331L50.8483 44.8648L52.7227 45.5625ZM58.1523 45.5625L60.0254 44.8614L59.5392 43.5625H58.1523V45.5625ZM68.7969 74V76H71.681L70.67 73.2989L68.7969 74ZM62.5664 74L60.6709 74.6381L61.1294 76H62.5664V74ZM51.9023 63.3945L50.0043 62.7642L49.1307 65.3945H51.9023V63.3945ZM59.0117 63.3945V65.3945H61.793L60.9077 62.7579L59.0117 63.3945ZM55.4375 52.75L57.3335 52.1134L55.4271 46.4359L53.5394 52.1196L55.4375 52.75ZM60.5938 66.1406H50.3203V70.1406H60.5938V66.1406ZM48.4229 67.5082L46.4698 73.3675L50.2646 74.6325L52.2177 68.7731L48.4229 67.5082ZM48.3672 72H42.1367V76H48.3672V72ZM44.0111 74.6977L54.597 46.2602L50.8483 44.8648L40.2624 73.3023L44.0111 74.6977ZM52.7227 47.5625H58.1523V43.5625H52.7227V47.5625ZM56.2793 46.2636L66.9238 74.7011L70.67 73.2989L60.0254 44.8614L56.2793 46.2636ZM68.7969 72H62.5664V76H68.7969V72ZM64.4619 73.3619L62.4892 67.5025L58.6983 68.7788L60.6709 74.6381L64.4619 73.3619ZM51.9023 65.3945H59.0117V61.3945H51.9023V65.3945ZM60.9077 62.7579L57.3335 52.1134L53.5415 53.3866L57.1157 64.0312L60.9077 62.7579ZM53.5394 52.1196L50.0043 62.7642L53.8004 64.0249L57.3356 53.3804L53.5394 52.1196ZM77.3125 69.293H75.3125V71.293H77.3125V69.293ZM89.7539 69.293H91.7539V67.293H89.7539V69.293ZM89.7539 74V76H91.7539V74H89.7539ZM71.4531 74H69.4531V76H71.4531V74ZM71.4531 45.5625V43.5625H69.4531V45.5625H71.4531ZM77.3125 45.5625H79.3125V43.5625H77.3125V45.5625ZM77.3125 71.293H89.7539V67.293H77.3125V71.293ZM87.7539 69.293V74H91.7539V69.293H87.7539ZM89.7539 72H71.4531V76H89.7539V72ZM73.4531 74V45.5625H69.4531V74H73.4531ZM71.4531 47.5625H77.3125V43.5625H71.4531V47.5625ZM75.3125 45.5625V69.293H79.3125V45.5625H75.3125ZM102.039 62.5938L103.723 61.5152L102.331 59.3405L100.573 61.2328L102.039 62.5938ZM98.9922 65.875L97.5266 64.5141L96.9922 65.0896V65.875H98.9922ZM98.9922 74V76H100.992V74H98.9922ZM93.1328 74H91.1328V76H93.1328V74ZM93.1328 45.5625V43.5625H91.1328V45.5625H93.1328ZM98.9922 45.5625H100.992V43.5625H98.9922V45.5625ZM98.9922 58.4531H96.9922V64.5898L100.608 59.6316L98.9922 58.4531ZM101.57 54.918L99.9891 53.6933L99.9714 53.7161L99.9544 53.7395L101.57 54.918ZM108.816 45.5625V43.5625H107.836L107.235 44.3378L108.816 45.5625ZM116.023 45.5625L117.586 46.811L120.182 43.5625H116.023V45.5625ZM105.926 58.1992L104.363 56.9507L103.457 58.085L104.255 59.2981L105.926 58.1992ZM116.316 74V76H120.025L117.987 72.9011L116.316 74ZM109.344 74L107.66 75.0786L108.25 76H109.344V74ZM100.573 61.2328L97.5266 64.5141L100.458 67.2359L103.505 63.9547L100.573 61.2328ZM96.9922 65.875V74H100.992V65.875H96.9922ZM98.9922 72H93.1328V76H98.9922V72ZM95.1328 74V45.5625H91.1328V74H95.1328ZM93.1328 47.5625H98.9922V43.5625H93.1328V47.5625ZM96.9922 45.5625V58.4531H100.992V45.5625H96.9922ZM100.608 59.6316L103.186 56.0964L99.9544 53.7395L97.3763 57.2747L100.608 59.6316ZM103.152 56.1426L110.398 46.7872L107.235 44.3378L99.9891 53.6933L103.152 56.1426ZM108.816 47.5625H116.023V43.5625H108.816V47.5625ZM114.461 44.314L104.363 56.9507L107.488 59.4477L117.586 46.811L114.461 44.314ZM104.255 59.2981L114.645 75.0989L117.987 72.9011L107.597 57.1003L104.255 59.2981ZM116.316 72H109.344V76H116.316V72ZM111.028 72.9214L103.723 61.5152L100.355 63.6723L107.66 75.0786L111.028 72.9214ZM124.754 74V76H126.754V74H124.754ZM118.895 74H116.895V76H118.895V74ZM118.895 45.5625V43.5625H116.895V45.5625H118.895ZM124.754 45.5625H126.754V43.5625H124.754V45.5625ZM124.754 72H118.895V76H124.754V72ZM120.895 74V45.5625H116.895V74H120.895ZM118.895 47.5625H124.754V43.5625H118.895V47.5625ZM122.754 45.5625V74H126.754V45.5625H122.754ZM153.328 74V76H155.328V74H153.328ZM147.469 74L145.761 75.041L146.346 76H147.469V74ZM136.062 55.2891L137.77 54.248L134.062 48.1659V55.2891H136.062ZM136.062 74V76H138.062V74H136.062ZM130.203 74H128.203V76H130.203V74ZM130.203 45.5625V43.5625H128.203V45.5625H130.203ZM136.062 45.5625L137.77 44.5218L137.186 43.5625H136.062V45.5625ZM147.488 64.3125L145.78 65.3532L149.488 71.438V64.3125H147.488ZM147.488 45.5625V43.5625H145.488V45.5625H147.488ZM153.328 45.5625H155.328V43.5625H153.328V45.5625ZM153.328 72H147.469V76H153.328V72ZM149.176 72.959L137.77 54.248L134.355 56.3301L145.761 75.041L149.176 72.959ZM134.062 55.2891V74H138.062V55.2891H134.062ZM136.062 72H130.203V76H136.062V72ZM132.203 74V45.5625H128.203V74H132.203ZM130.203 47.5625H136.062V43.5625H130.203V47.5625ZM134.355 46.6032L145.78 65.3532L149.196 63.2718L137.77 44.5218L134.355 46.6032ZM149.488 64.3125V45.5625H145.488V64.3125H149.488ZM147.488 47.5625H153.328V43.5625H147.488V47.5625ZM151.328 45.5625V74H155.328V45.5625H151.328ZM180.945 70.4062L182.48 71.6882L182.945 71.1315V70.4062H180.945ZM176.473 73.3555L177.147 75.2384L177.158 75.2343L176.473 73.3555ZM163.582 72.7891L162.573 74.5157L162.58 74.5199L162.587 74.5241L163.582 72.7891ZM159.285 68.1016L157.489 68.9823L157.494 68.9914L159.285 68.1016ZM157.742 60.8945H155.742V60.904L155.742 60.9134L157.742 60.8945ZM159.168 51.5977L157.353 50.7581L157.35 50.7632L159.168 51.5977ZM163.309 46.832L164.348 48.5404L164.352 48.5383L163.309 46.832ZM177.566 47.5938L176.272 49.1182L176.278 49.1233L177.566 47.5938ZM180.945 54.6055V56.6055H183.187L182.932 54.3781L180.945 54.6055ZM175.242 54.6055L173.267 54.9214L173.537 56.6055H175.242V54.6055ZM173.504 51.0312L172.206 52.5529L172.211 52.5576L172.217 52.5622L173.504 51.0312ZM165.281 52.1445L163.639 51.0024L165.281 52.1445ZM163.699 58.8242L161.699 58.8154V58.8242H163.699ZM175.086 68.2773L176.5 69.6916L177.086 69.1058V68.2773H175.086ZM175.086 63.375H177.086V61.375H175.086V63.375ZM169.754 63.375H167.754V65.375H169.754V63.375ZM169.754 59.0586V57.0586H167.754V59.0586H169.754ZM180.945 59.0586H182.945V57.0586H180.945V59.0586ZM179.41 69.1243C178.631 70.058 177.464 70.8648 175.787 71.4766L177.158 75.2343C179.335 74.4399 181.151 73.2806 182.48 71.6882L179.41 69.1243ZM175.798 71.4726C174.117 72.0748 172.213 72.3906 170.066 72.3906V76.3906C172.607 76.3906 174.975 76.0163 177.147 75.2384L175.798 71.4726ZM170.066 72.3906C167.903 72.3906 166.094 71.924 164.577 71.0541L162.587 74.5241C164.794 75.7895 167.308 76.3906 170.066 76.3906V72.3906ZM164.591 71.0624C163.101 70.1916 161.93 68.9309 161.076 67.2117L157.494 68.9914C158.671 71.3608 160.365 73.2251 162.573 74.5157L164.591 71.0624ZM161.081 67.2209C160.235 65.496 159.766 63.3996 159.742 60.8757L155.742 60.9134C155.771 63.9103 156.33 66.6186 157.489 68.9822L161.081 67.2209ZM159.742 60.8945V58.9609H155.742V60.8945H159.742ZM159.742 58.9609C159.742 56.3415 160.181 54.1845 160.986 52.4321L157.35 50.7632C156.254 53.1514 155.742 55.9033 155.742 58.9609H159.742ZM160.983 52.4372C161.796 50.6797 162.921 49.4091 164.348 48.5404L162.269 45.1236C160.102 46.4425 158.467 48.349 157.353 50.7581L160.983 52.4372ZM164.352 48.5383C165.805 47.6496 167.549 47.1719 169.656 47.1719V43.1719C166.919 43.1719 164.432 43.8009 162.265 45.1258L164.352 48.5383ZM169.656 47.1719C172.722 47.1719 174.842 47.904 176.272 49.1181L178.861 46.0694C176.489 44.0543 173.335 43.1719 169.656 43.1719V47.1719ZM176.278 49.1233C177.699 50.3203 178.65 52.1372 178.958 54.8328L182.932 54.3781C182.538 50.9279 181.236 48.0703 178.855 46.0642L176.278 49.1233ZM180.945 52.6055H175.242V56.6055H180.945V52.6055ZM177.217 54.2895C176.911 52.3778 176.182 50.6696 174.791 49.5003L172.217 52.5622C172.623 52.9034 173.052 53.5779 173.267 54.9214L177.217 54.2895ZM174.802 49.5096C173.447 48.3536 171.706 47.8984 169.832 47.8984V51.8984C171.083 51.8984 171.79 52.1985 172.206 52.5529L174.802 49.5096ZM169.832 47.8984C167.256 47.8984 165.094 48.912 163.639 51.0024L166.923 53.2867C167.552 52.3823 168.424 51.8984 169.832 51.8984V47.8984ZM163.639 51.0024C162.263 52.9811 161.713 55.6838 161.699 58.8154L165.699 58.833C165.711 56.0532 166.216 54.3028 166.923 53.2867L163.639 51.0024ZM161.699 58.8242V60.6406H165.699V58.8242H161.699ZM161.699 60.6406C161.699 63.8236 162.295 66.5765 163.794 68.5918L167.003 66.205C166.236 65.1735 165.699 63.4212 165.699 60.6406H161.699ZM163.794 68.5918C165.365 70.7049 167.669 71.6836 170.379 71.6836V67.6836C168.714 67.6836 167.698 67.1389 167.003 66.205L163.794 68.5918ZM170.379 71.6836C172.778 71.6836 175.005 71.1869 176.5 69.6916L173.672 66.8631C173.292 67.2428 172.38 67.6836 170.379 67.6836V71.6836ZM177.086 68.2773V63.375H173.086V68.2773H177.086ZM175.086 61.375H169.754V65.375H175.086V61.375ZM171.754 63.375V59.0586H167.754V63.375H171.754ZM169.754 61.0586H180.945V57.0586H169.754V61.0586ZM178.945 59.0586V70.4062H182.945V59.0586H178.945Z" fill="white"/>
<path d="M290.898 60.4258C290.898 63.2253 290.404 65.6797 289.414 67.7891C288.424 69.8984 287.005 71.526 285.156 72.6719C283.32 73.8177 281.211 74.3906 278.828 74.3906C276.471 74.3906 274.368 73.8242 272.52 72.6914C270.671 71.5586 269.238 69.944 268.223 67.8477C267.207 65.7383 266.693 63.3164 266.68 60.582V59.1758C266.68 56.3763 267.181 53.9154 268.184 51.793C269.199 49.6576 270.625 48.0234 272.461 46.8906C274.31 45.7448 276.419 45.1719 278.789 45.1719C281.159 45.1719 283.262 45.7448 285.098 46.8906C286.947 48.0234 288.372 49.6576 289.375 51.793C290.391 53.9154 290.898 56.3698 290.898 59.1562V60.4258ZM284.961 59.1367C284.961 56.1549 284.427 53.8893 283.359 52.3398C282.292 50.7904 280.768 50.0156 278.789 50.0156C276.823 50.0156 275.306 50.7839 274.238 52.3203C273.171 53.8438 272.63 56.0833 272.617 59.0391V60.4258C272.617 63.3294 273.151 65.582 274.219 67.1836C275.286 68.7852 276.823 69.5859 278.828 69.5859C280.794 69.5859 282.305 68.8177 283.359 67.2812C284.414 65.7318 284.948 63.4792 284.961 60.5234V59.1367ZM295.156 74V45.5625H305.117C308.568 45.5625 311.185 46.2266 312.969 47.5547C314.753 48.8698 315.645 50.8034 315.645 53.3555C315.645 54.7487 315.286 55.9792 314.57 57.0469C313.854 58.1016 312.858 58.8763 311.582 59.3711C313.04 59.7357 314.186 60.4714 315.02 61.5781C315.866 62.6849 316.289 64.0391 316.289 65.6406C316.289 68.375 315.417 70.4453 313.672 71.8516C311.927 73.2578 309.44 73.974 306.211 74H295.156ZM301.016 61.6172V69.293H306.035C307.415 69.293 308.49 68.9674 309.258 68.3164C310.039 67.6523 310.43 66.7409 310.43 65.582C310.43 62.9779 309.082 61.6562 306.387 61.6172H301.016ZM301.016 57.4766H305.352C308.307 57.4245 309.785 56.2461 309.785 53.9414C309.785 52.6523 309.408 51.7279 308.652 51.168C307.91 50.5951 306.732 50.3086 305.117 50.3086H301.016V57.4766ZM344.062 60.4258C344.062 63.2253 343.568 65.6797 342.578 67.7891C341.589 69.8984 340.169 71.526 338.32 72.6719C336.484 73.8177 334.375 74.3906 331.992 74.3906C329.635 74.3906 327.533 73.8242 325.684 72.6914C323.835 71.5586 322.402 69.944 321.387 67.8477C320.371 65.7383 319.857 63.3164 319.844 60.582V59.1758C319.844 56.3763 320.345 53.9154 321.348 51.793C322.363 49.6576 323.789 48.0234 325.625 46.8906C327.474 45.7448 329.583 45.1719 331.953 45.1719C334.323 45.1719 336.426 45.7448 338.262 46.8906C340.111 48.0234 341.536 49.6576 342.539 51.793C343.555 53.9154 344.062 56.3698 344.062 59.1562V60.4258ZM338.125 59.1367C338.125 56.1549 337.591 53.8893 336.523 52.3398C335.456 50.7904 333.932 50.0156 331.953 50.0156C329.987 50.0156 328.47 50.7839 327.402 52.3203C326.335 53.8438 325.794 56.0833 325.781 59.0391V60.4258C325.781 63.3294 326.315 65.582 327.383 67.1836C328.451 68.7852 329.987 69.5859 331.992 69.5859C333.958 69.5859 335.469 68.8177 336.523 67.2812C337.578 65.7318 338.112 63.4792 338.125 60.5234V59.1367ZM368.047 50.3086H359.336V74H353.477V50.3086H344.883V45.5625H368.047V50.3086Z" fill="#3AABD2"/>
<path d="M285.156 72.6719L284.103 70.9718L284.097 70.9752L285.156 72.6719ZM268.223 67.8477L266.421 68.7153L266.423 68.7197L268.223 67.8477ZM266.68 60.582L264.68 60.582L264.68 60.5916L266.68 60.582ZM268.184 51.793L266.377 50.934L266.375 50.9387L268.184 51.793ZM272.461 46.8906L273.511 48.5927L273.514 48.5906L272.461 46.8906ZM285.098 46.8906L284.039 48.5873L284.046 48.5917L284.053 48.596L285.098 46.8906ZM289.375 51.793L287.565 52.643L287.568 52.6496L287.571 52.6563L289.375 51.793ZM274.238 52.3203L275.876 53.4682L275.881 53.4616L274.238 52.3203ZM272.617 59.0391L270.617 59.0303V59.0391H272.617ZM274.219 67.1836L275.883 66.0742L274.219 67.1836ZM283.359 67.2812L285.008 68.4131L285.013 68.4066L283.359 67.2812ZM284.961 60.5234L286.961 60.5322V60.5234H284.961ZM288.898 60.4258C288.898 62.9899 288.446 65.1442 287.603 66.9396L291.225 68.6385C292.362 66.2152 292.898 63.4606 292.898 60.4258H288.898ZM287.603 66.9396C286.766 68.7242 285.599 70.0449 284.103 70.9719L286.21 74.3719C288.412 73.0072 290.083 71.0726 291.225 68.6385L287.603 66.9396ZM284.097 70.9752C282.611 71.9031 280.876 72.3906 278.828 72.3906V76.3906C281.546 76.3906 284.03 75.7324 286.215 74.3685L284.097 70.9752ZM278.828 72.3906C276.807 72.3906 275.072 71.9095 273.564 70.986L271.475 74.3968C273.665 75.7389 276.136 76.3906 278.828 76.3906V72.3906ZM273.564 70.986C272.066 70.068 270.884 68.7544 270.023 66.9757L266.423 68.7197C267.592 71.1336 269.275 73.0492 271.475 74.3968L273.564 70.986ZM270.025 66.98C269.158 65.1798 268.692 63.0593 268.68 60.5725L264.68 60.5916C264.694 63.5735 265.256 66.2967 266.421 68.7153L270.025 66.98ZM268.68 60.582V59.1758H264.68V60.582H268.68ZM268.68 59.1758C268.68 56.6155 269.138 54.456 269.992 52.6472L266.375 50.9387C265.224 53.3748 264.68 56.1371 264.68 59.1758H268.68ZM269.99 52.652C270.856 50.8298 272.034 49.5039 273.511 48.5927L271.411 45.1886C269.216 46.543 267.542 48.4853 266.377 50.934L269.99 52.652ZM273.514 48.5906C275.019 47.6583 276.757 47.1719 278.789 47.1719V43.1719C276.082 43.1719 273.601 43.8313 271.407 45.1906L273.514 48.5906ZM278.789 47.1719C280.821 47.1719 282.55 47.6583 284.039 48.5873L286.157 45.194C283.973 43.8312 281.496 43.1719 278.789 43.1719V47.1719ZM284.053 48.596C285.539 49.5067 286.713 50.8289 287.565 52.643L291.185 50.943C290.032 48.4862 288.354 46.5402 286.142 45.1852L284.053 48.596ZM287.571 52.6563C288.436 54.4639 288.898 56.614 288.898 59.1562H292.898C292.898 56.1256 292.345 53.3668 291.179 50.9297L287.571 52.6563ZM288.898 59.1562V60.4258H292.898V59.1562H288.898ZM286.961 59.1367C286.961 55.9679 286.403 53.2315 285.006 51.205L281.713 53.4747C282.452 54.5472 282.961 56.342 282.961 59.1367H286.961ZM285.006 51.205C283.543 49.0814 281.386 48.0156 278.789 48.0156V52.0156C280.151 52.0156 281.04 52.4993 281.713 53.4747L285.006 51.205ZM278.789 48.0156C276.207 48.0156 274.059 49.073 272.596 51.179L275.881 53.4616C276.553 52.4947 277.438 52.0156 278.789 52.0156V48.0156ZM272.6 51.1724C271.198 53.1739 270.631 55.8878 270.617 59.0303L274.617 59.0479C274.629 56.2788 275.143 54.5136 275.876 53.4682L272.6 51.1724ZM270.617 59.0391V60.4258H274.617V59.0391H270.617ZM270.617 60.4258C270.617 63.5363 271.183 66.2353 272.555 68.293L275.883 66.0742C275.119 64.9288 274.617 63.1226 274.617 60.4258H270.617ZM272.555 68.293C274.011 70.4782 276.188 71.5859 278.828 71.5859V67.5859C277.458 67.5859 276.561 67.0921 275.883 66.0742L272.555 68.293ZM278.828 71.5859C281.41 71.5859 283.557 70.5275 285.008 68.4131L281.71 66.1494C281.053 67.1079 280.178 67.5859 278.828 67.5859V71.5859ZM285.013 68.4066C286.387 66.388 286.947 63.6747 286.961 60.5322L282.961 60.5146C282.949 63.2836 282.441 65.0755 281.706 66.1559L285.013 68.4066ZM286.961 60.5234V59.1367H282.961V60.5234H286.961ZM295.156 74H293.156V76H295.156V74ZM295.156 45.5625V43.5625H293.156V45.5625H295.156ZM312.969 47.5547L311.774 49.1589L311.782 49.1645L312.969 47.5547ZM314.57 57.0469L316.225 58.1704L316.231 58.1609L314.57 57.0469ZM311.582 59.3711L310.859 57.5064L304.986 59.7836L311.097 61.3114L311.582 59.3711ZM315.02 61.5781L313.422 62.7811L313.426 62.7871L313.431 62.793L315.02 61.5781ZM313.672 71.8516L314.927 73.4088L313.672 71.8516ZM306.211 74V76H306.219L306.227 75.9999L306.211 74ZM301.016 61.6172V59.6172H299.016V61.6172H301.016ZM301.016 69.293H299.016V71.293H301.016V69.293ZM309.258 68.3164L310.551 69.8422L310.553 69.8403L309.258 68.3164ZM306.387 61.6172L306.416 59.6174L306.401 59.6172H306.387V61.6172ZM301.016 57.4766H299.016V59.4766H301.016V57.4766ZM305.352 57.4766V59.4766H305.369L305.387 59.4763L305.352 57.4766ZM308.652 51.168L307.43 52.7511L307.446 52.763L307.461 52.7746L308.652 51.168ZM301.016 50.3086V48.3086H299.016V50.3086H301.016ZM297.156 74V45.5625H293.156V74H297.156ZM295.156 47.5625H305.117V43.5625H295.156V47.5625ZM305.117 47.5625C308.36 47.5625 310.479 48.1947 311.774 49.1589L314.163 45.9505C311.89 44.2584 308.776 43.5625 305.117 43.5625V47.5625ZM311.782 49.1645C312.972 50.0418 313.645 51.3287 313.645 53.3555H317.645C317.645 50.2781 316.533 47.6978 314.156 45.9449L311.782 49.1645ZM313.645 53.3555C313.645 54.3867 313.386 55.2223 312.909 55.9328L316.231 58.1609C317.187 56.736 317.645 55.1107 317.645 53.3555H313.645ZM312.916 55.9234C312.445 56.6171 311.786 57.147 310.859 57.5064L312.305 61.2358C313.93 60.6056 315.264 59.5861 316.225 58.1704L312.916 55.9234ZM311.097 61.3114C312.151 61.575 312.888 62.0722 313.422 62.7811L316.617 60.3751C315.484 58.8705 313.929 57.8964 312.067 57.4308L311.097 61.3114ZM313.431 62.793C313.972 63.5002 314.289 64.4096 314.289 65.6406H318.289C318.289 63.6685 317.76 61.8696 316.608 60.3632L313.431 62.793ZM314.289 65.6406C314.289 67.917 313.587 69.3513 312.417 70.2944L314.927 73.4088C317.246 71.5393 318.289 68.833 318.289 65.6406H314.289ZM312.417 70.2944C311.149 71.3163 309.166 71.9761 306.195 72.0001L306.227 75.9999C309.714 75.9718 312.705 75.1993 314.927 73.4088L312.417 70.2944ZM306.211 72H295.156V76H306.211V72ZM299.016 61.6172V69.293H303.016V61.6172H299.016ZM301.016 71.293H306.035V67.293H301.016V71.293ZM306.035 71.293C307.714 71.293 309.307 70.8963 310.551 69.8422L307.965 66.7906C307.672 67.0386 307.117 67.293 306.035 67.293V71.293ZM310.553 69.8403C311.843 68.7441 312.43 67.2421 312.43 65.582H308.43C308.43 66.2397 308.235 66.5606 307.963 66.7925L310.553 69.8403ZM312.43 65.582C312.43 63.9515 312.004 62.3713 310.819 61.2098C309.647 60.0603 308.057 59.6412 306.416 59.6174L306.358 63.617C307.412 63.6323 307.843 63.8935 308.019 64.0656C308.182 64.2257 308.43 64.6084 308.43 65.582H312.43ZM306.387 59.6172H301.016V63.6172H306.387V59.6172ZM301.016 59.4766H305.352V55.4766H301.016V59.4766ZM305.387 59.4763C307.072 59.4465 308.694 59.0981 309.924 58.1175C311.243 57.0654 311.785 55.5548 311.785 53.9414H307.785C307.785 54.6327 307.588 54.8636 307.43 54.99C307.182 55.1877 306.586 55.4545 305.316 55.4769L305.387 59.4763ZM311.785 53.9414C311.785 52.2718 311.281 50.6273 309.843 49.5613L307.461 52.7746C307.534 52.8285 307.785 53.0329 307.785 53.9414H311.785ZM309.874 49.5848C308.608 48.607 306.887 48.3086 305.117 48.3086V52.3086C306.577 52.3086 307.212 52.5831 307.43 52.7511L309.874 49.5848ZM305.117 48.3086H301.016V52.3086H305.117V48.3086ZM299.016 50.3086V57.4766H303.016V50.3086H299.016ZM338.32 72.6719L337.267 70.9718L337.261 70.9752L338.32 72.6719ZM321.387 67.8477L319.585 68.7153L319.587 68.7197L321.387 67.8477ZM319.844 60.582L317.844 60.582L317.844 60.5916L319.844 60.582ZM321.348 51.793L319.542 50.934L319.539 50.9387L321.348 51.793ZM325.625 46.8906L326.675 48.5927L326.679 48.5906L325.625 46.8906ZM338.262 46.8906L337.203 48.5873L337.21 48.5917L337.217 48.596L338.262 46.8906ZM342.539 51.793L340.729 52.643L340.732 52.6496L340.735 52.6563L342.539 51.793ZM327.402 52.3203L329.04 53.4682L329.045 53.4616L327.402 52.3203ZM325.781 59.0391L323.781 59.0303V59.0391H325.781ZM327.383 67.1836L329.047 66.0742L327.383 67.1836ZM336.523 67.2812L338.172 68.4131L338.177 68.4066L336.523 67.2812ZM338.125 60.5234L340.125 60.5322V60.5234H338.125ZM342.062 60.4258C342.062 62.9899 341.61 65.1442 340.767 66.9396L344.389 68.6385C345.526 66.2152 346.062 63.4606 346.062 60.4258H342.062ZM340.767 66.9396C339.93 68.7242 338.763 70.0449 337.267 70.9719L339.374 74.3719C341.576 73.0072 343.247 71.0726 344.389 68.6385L340.767 66.9396ZM337.261 70.9752C335.775 71.9031 334.04 72.3906 331.992 72.3906V76.3906C334.71 76.3906 337.194 75.7324 339.379 74.3685L337.261 70.9752ZM331.992 72.3906C329.971 72.3906 328.236 71.9095 326.728 70.986L324.639 74.3968C326.829 75.7389 329.3 76.3906 331.992 76.3906V72.3906ZM326.728 70.986C325.23 70.068 324.048 68.7544 323.187 66.9757L319.587 68.7197C320.756 71.1336 322.439 73.0492 324.639 74.3968L326.728 70.986ZM323.189 66.98C322.322 65.1798 321.856 63.0593 321.844 60.5725L317.844 60.5916C317.858 63.5735 318.42 66.2967 319.585 68.7153L323.189 66.98ZM321.844 60.582V59.1758H317.844V60.582H321.844ZM321.844 59.1758C321.844 56.6155 322.302 54.456 323.156 52.6472L319.539 50.9387C318.389 53.3748 317.844 56.1371 317.844 59.1758H321.844ZM323.154 52.652C324.02 50.8298 325.198 49.5039 326.675 48.5927L324.575 45.1886C322.38 46.543 320.706 48.4853 319.542 50.934L323.154 52.652ZM326.679 48.5906C328.183 47.6583 329.921 47.1719 331.953 47.1719V43.1719C329.246 43.1719 326.765 43.8313 324.571 45.1906L326.679 48.5906ZM331.953 47.1719C333.985 47.1719 335.714 47.6583 337.203 48.5873L339.321 45.194C337.137 43.8312 334.66 43.1719 331.953 43.1719V47.1719ZM337.217 48.596C338.703 49.5067 339.877 50.8289 340.729 52.643L344.349 50.943C343.196 48.4862 341.518 46.5402 339.307 45.1852L337.217 48.596ZM340.735 52.6563C341.6 54.4639 342.062 56.614 342.062 59.1562H346.062C346.062 56.1256 345.509 53.3668 344.343 50.9297L340.735 52.6563ZM342.062 59.1562V60.4258H346.062V59.1562H342.062ZM340.125 59.1367C340.125 55.9679 339.567 53.2315 338.17 51.205L334.877 53.4747C335.616 54.5472 336.125 56.342 336.125 59.1367H340.125ZM338.17 51.205C336.707 49.0814 334.55 48.0156 331.953 48.0156V52.0156C333.315 52.0156 334.204 52.4993 334.877 53.4747L338.17 51.205ZM331.953 48.0156C329.371 48.0156 327.223 49.073 325.76 51.179L329.045 53.4616C329.717 52.4947 330.603 52.0156 331.953 52.0156V48.0156ZM325.765 51.1724C324.362 53.1739 323.795 55.8878 323.781 59.0303L327.781 59.0479C327.793 56.2788 328.307 54.5136 329.04 53.4682L325.765 51.1724ZM323.781 59.0391V60.4258H327.781V59.0391H323.781ZM323.781 60.4258C323.781 63.5363 324.347 66.2353 325.719 68.293L329.047 66.0742C328.283 64.9288 327.781 63.1226 327.781 60.4258H323.781ZM325.719 68.293C327.176 70.4782 329.352 71.5859 331.992 71.5859V67.5859C330.622 67.5859 329.726 67.0921 329.047 66.0742L325.719 68.293ZM331.992 71.5859C334.574 71.5859 336.721 70.5275 338.172 68.4131L334.875 66.1494C334.217 67.1079 333.342 67.5859 331.992 67.5859V71.5859ZM338.177 68.4066C339.551 66.388 340.111 63.6747 340.125 60.5322L336.125 60.5146C336.113 63.2836 335.605 65.0755 334.87 66.1559L338.177 68.4066ZM340.125 60.5234V59.1367H336.125V60.5234H340.125ZM368.047 50.3086V52.3086H370.047V50.3086H368.047ZM359.336 50.3086V48.3086H357.336V50.3086H359.336ZM359.336 74V76H361.336V74H359.336ZM353.477 74H351.477V76H353.477V74ZM353.477 50.3086H355.477V48.3086H353.477V50.3086ZM344.883 50.3086H342.883V52.3086H344.883V50.3086ZM344.883 45.5625V43.5625H342.883V45.5625H344.883ZM368.047 45.5625H370.047V43.5625H368.047V45.5625ZM368.047 48.3086H359.336V52.3086H368.047V48.3086ZM357.336 50.3086V74H361.336V50.3086H357.336ZM359.336 72H353.477V76H359.336V72ZM355.477 74V50.3086H351.477V74H355.477ZM353.477 48.3086H344.883V52.3086H353.477V48.3086ZM346.883 50.3086V45.5625H342.883V50.3086H346.883ZM344.883 47.5625H368.047V43.5625H344.883V47.5625ZM366.047 45.5625V50.3086H370.047V45.5625H366.047Z" fill="white"/>
<path d="M240.133 53.1797H230.797V74H219.078V17.125H240.211C246.93 17.125 252.112 18.6224 255.758 21.6172C259.404 24.612 261.227 28.8438 261.227 34.3125C261.227 38.1927 260.38 41.4349 258.688 44.0391C257.021 46.6172 254.482 48.6745 251.07 50.2109L263.375 73.4531V74H250.797L240.133 53.1797ZM230.797 43.6875H240.25C243.193 43.6875 245.471 42.9453 247.086 41.4609C248.701 39.9505 249.508 37.8802 249.508 35.25C249.508 32.5677 248.74 30.4583 247.203 28.9219C245.693 27.3854 243.362 26.6172 240.211 26.6172H230.797V43.6875Z" fill="white"/>
<path d="M240.133 53.1797L241.913 52.2679L241.356 51.1797H240.133V53.1797ZM230.797 53.1797V51.1797H228.797V53.1797H230.797ZM230.797 74V76H232.797V74H230.797ZM219.078 74H217.078V76H219.078V74ZM219.078 17.125V15.125H217.078V17.125H219.078ZM255.758 21.6172L257.027 20.0717L255.758 21.6172ZM258.688 44.0391L257.011 42.9491L257.008 42.9533L258.688 44.0391ZM251.07 50.2109L250.249 48.3874L248.305 49.2627L249.303 51.1467L251.07 50.2109ZM263.375 73.4531H265.375V72.9564L265.143 72.5173L263.375 73.4531ZM263.375 74V76H265.375V74H263.375ZM250.797 74L249.017 74.9118L249.574 76H250.797V74ZM230.797 43.6875H228.797V45.6875H230.797V43.6875ZM247.086 41.4609L248.44 42.9333L248.446 42.9274L248.452 42.9215L247.086 41.4609ZM247.203 28.9219L245.777 30.324L245.783 30.33L245.789 30.3361L247.203 28.9219ZM230.797 26.6172V24.6172H228.797V26.6172H230.797ZM240.133 51.1797H230.797V55.1797H240.133V51.1797ZM228.797 53.1797V74H232.797V53.1797H228.797ZM230.797 72H219.078V76H230.797V72ZM221.078 74V17.125H217.078V74H221.078ZM219.078 19.125H240.211V15.125H219.078V19.125ZM240.211 19.125C246.659 19.125 251.325 20.5643 254.488 23.1626L257.027 20.0717C252.899 16.6805 247.2 15.125 240.211 15.125V19.125ZM254.488 23.1626C257.595 25.7148 259.227 29.3358 259.227 34.3125H263.227C263.227 28.3517 261.212 23.5092 257.027 20.0717L254.488 23.1626ZM259.227 34.3125C259.227 37.9022 258.445 40.7417 257.011 42.9491L260.364 45.129C262.315 42.1281 263.227 38.4833 263.227 34.3125H259.227ZM257.008 42.9533C255.592 45.1434 253.387 46.9742 250.249 48.3874L251.892 52.0345C255.577 50.3747 258.45 48.091 260.367 45.1249L257.008 42.9533ZM249.303 51.1467L261.607 74.3889L265.143 72.5173L252.838 49.2752L249.303 51.1467ZM261.375 73.4531V74H265.375V73.4531H261.375ZM263.375 72H250.797V76H263.375V72ZM252.577 73.0882L241.913 52.2679L238.353 54.0914L249.017 74.9118L252.577 73.0882ZM230.797 45.6875H240.25V41.6875H230.797V45.6875ZM240.25 45.6875C243.52 45.6875 246.345 44.859 248.44 42.9333L245.732 39.9886C244.598 41.0316 242.866 41.6875 240.25 41.6875V45.6875ZM248.452 42.9215C250.547 40.9616 251.508 38.3199 251.508 35.25H247.508C247.508 37.4405 246.854 38.9395 245.72 40.0004L248.452 42.9215ZM251.508 35.25C251.508 32.1692 250.613 29.5032 248.617 27.5077L245.789 30.3361C246.866 31.4135 247.508 32.9662 247.508 35.25H251.508ZM248.629 27.5198C246.599 25.4542 243.65 24.6172 240.211 24.6172V28.6172C243.074 28.6172 244.787 29.3167 245.777 30.324L248.629 27.5198ZM240.211 24.6172H230.797V28.6172H240.211V24.6172ZM228.797 26.6172V43.6875H232.797V26.6172H228.797Z" fill="white"/>
<path d="M48.8906 26.6172H31.4688V74H19.75V26.6172H2.5625V17.125H48.8906V26.6172Z" fill="white"/>
<path d="M48.8906 26.6172V28.6172H50.8906V26.6172H48.8906ZM31.4688 26.6172V24.6172H29.4688V26.6172H31.4688ZM31.4688 74V76H33.4688V74H31.4688ZM19.75 74H17.75V76H19.75V74ZM19.75 26.6172H21.75V24.6172H19.75V26.6172ZM2.5625 26.6172H0.5625V28.6172H2.5625V26.6172ZM2.5625 17.125V15.125H0.5625V17.125H2.5625ZM48.8906 17.125H50.8906V15.125H48.8906V17.125ZM48.8906 24.6172H31.4688V28.6172H48.8906V24.6172ZM29.4688 26.6172V74H33.4688V26.6172H29.4688ZM31.4688 72H19.75V76H31.4688V72ZM21.75 74V26.6172H17.75V74H21.75ZM19.75 24.6172H2.5625V28.6172H19.75V24.6172ZM4.5625 26.6172V17.125H0.5625V26.6172H4.5625ZM2.5625 19.125H48.8906V15.125H2.5625V19.125ZM46.8906 17.125V26.6172H50.8906V17.125H46.8906Z" fill="white"/>
</svg>
